<svg width="375" height="350" viewBox="0 0 375 350" fill="none" xmlns="http://www.w3.org/2000/svg">
<path fill-rule="evenodd" clip-rule="evenodd" d="M152.403 233.643C216.921 233.643 269.224 181.34 269.224 116.822C269.224 52.3028 216.921 0 152.403 0C103.908 0 62.3141 29.5494 44.6454 71.6252C37.6012 69.6683 30.1779 68.6224 22.5103 68.6224C-23.0589 68.6224 -60 105.564 -60 151.133C-60 196.702 -23.0589 233.643 22.5103 233.643C45.381 233.643 66.0784 224.338 81.023 209.307C100.763 224.565 125.523 233.643 152.403 233.643Z" fill="#F2F2F2"/>
<path fill-rule="evenodd" clip-rule="evenodd" d="M399.558 234.06C399.558 274.511 369.557 307.956 330.592 313.357C323.239 328.783 307.5 339.444 289.272 339.444C280.44 339.444 272.192 336.941 265.2 332.606C255.119 342.876 241.079 349.247 225.551 349.247C194.871 349.247 170 324.376 170 293.696C170 263.015 194.871 238.144 225.551 238.144C230.424 238.144 235.15 238.771 239.653 239.95C239.511 238.005 239.439 236.041 239.439 234.06C239.439 189.844 275.283 154 319.499 154C363.715 154 399.558 189.844 399.558 234.06Z" fill="#F2F2F2"/>
</svg>
