<svg width="302" height="418" viewBox="0 0 302 418" fill="none" xmlns="http://www.w3.org/2000/svg">
<path d="M210.15 321.693C219.156 355.301 199.211 389.847 165.603 398.852C131.994 407.857 97.449 387.913 88.4437 354.304C79.4384 320.696 97.8206 277.252 117.462 219.19C163.504 259.652 201.145 288.085 210.15 321.693Z" fill="#4B96B7"/>
<path d="M249.442 166.961C255.058 187.921 242.745 209.432 221.94 215.007C201.134 220.581 179.716 208.109 174.099 187.149C168.483 166.189 179.818 139.129 191.917 102.959C220.479 128.234 243.825 146.001 249.442 166.961Z" fill="#4B96B7"/>
<path d="M115.759 123.967C122.537 149.263 107.706 175.216 82.6332 181.935C57.5603 188.653 31.7398 173.592 24.9616 148.296C18.1834 122.999 31.833 90.3492 46.3985 46.7051C80.8346 77.2193 108.98 98.6701 115.759 123.967Z" fill="#4B96B7"/>
<path d="M209.15 317.693C218.156 351.301 198.211 385.847 164.603 394.852C130.994 403.857 96.449 383.913 87.4437 350.304C78.4384 316.696 96.8206 273.252 116.462 215.19C162.504 255.652 200.145 284.085 209.15 317.693Z" fill="#6BD3FF"/>
<path d="M248.442 162.961C254.058 183.921 241.745 205.432 220.94 211.007C200.134 216.581 178.716 204.109 173.099 183.149C167.483 162.189 178.818 135.129 190.917 98.9591C219.479 124.234 242.825 142.001 248.442 162.961Z" fill="#6BD3FF"/>
<path d="M114.759 119.967C121.537 145.263 106.706 171.216 81.6332 177.935C56.5603 184.653 30.7398 169.592 23.9616 144.296C17.1834 118.999 30.833 86.3492 45.3985 42.7051C79.8346 73.2193 107.98 94.6701 114.759 119.967Z" fill="#6BD3FF"/>
</svg>
